<!-- SLO Watch v2 "Vanilla Ledger" icon set
     24px grid · 1.8px ROUND stroke (pen line)
     Symbols: s-file s-target s-press s-quill s-up s-downtrend s-flat
              s-grid s-down s-copy s-alert s-check s-sun s-moon -->
<svg width="0" height="0" aria-hidden="true"><defs>
  <symbol id="s-file" viewBox="0 0 24 24"><path d="M6 3h9l4 4v14H6V3zM15 3v4h4M9 11h7M9 14.5h7M9 18h4.5"/></symbol>
  <symbol id="s-target" viewBox="0 0 24 24"><circle cx="12" cy="12" r="8.5"/><circle cx="12" cy="12" r="4.5"/><path d="M12 12h.01"/></symbol>
  <symbol id="s-press" viewBox="0 0 24 24"><path d="M4 17V7l6 6 4-8 6 12M3 20h18"/></symbol>
  <symbol id="s-quill" viewBox="0 0 24 24"><path d="M20 4c-7 .5-11.5 3.5-13.5 9L4 20M8 15c4.5 0 9-2 11-8l1-3-3.5 1M9.5 12.5 6.5 17"/></symbol>
  <symbol id="s-up" viewBox="0 0 24 24"><path d="M4 17l6-7 4 4 6-8M15 6h5v5"/></symbol>
  <symbol id="s-downtrend" viewBox="0 0 24 24"><path d="M4 7l6 7 4-4 6 8M15 18h5v-5"/></symbol>
  <symbol id="s-flat" viewBox="0 0 24 24"><path d="M4 12h13M14 8.5l4 3.5-4 3.5"/></symbol>
  <symbol id="s-grid" viewBox="0 0 24 24"><rect x="4" y="4" width="16" height="16" rx="3"/><path d="M4 9.3h16M4 14.6h16M9.3 4v16M14.6 4v16"/></symbol>
  <symbol id="s-down" viewBox="0 0 24 24"><path d="M12 4v11M7.5 11 12 15.5 16.5 11M5 19h14"/></symbol>
  <symbol id="s-copy" viewBox="0 0 24 24"><rect x="9" y="9" width="11" height="11" rx="2"/><path d="M5 15V4h11"/></symbol>
  <symbol id="s-alert" viewBox="0 0 24 24"><path d="M12 3.5 3 19.5h18L12 3.5zM12 10v4M12 16.8v.01"/></symbol>
  <symbol id="s-check" viewBox="0 0 24 24"><path d="M4.5 12.5 10 18 19.5 6.5"/></symbol>
  <symbol id="s-sun" viewBox="0 0 24 24"><circle cx="12" cy="12" r="4.2"/><path d="M12 2.5v2.7M12 18.8v2.7M2.5 12h2.7M18.8 12h2.7M5 5l1.9 1.9M17.1 17.1 19 19M19 5l-1.9 1.9M6.9 17.1 5 19"/></symbol>
  <symbol id="s-moon" viewBox="0 0 24 24"><path d="M20 14.5A8.5 8.5 0 0 1 9.5 4 8.5 8.5 0 1 0 20 14.5z"/></symbol>
</defs></svg>